<svg width="53" height="52" viewBox="0 0 53 52" fill="none" xmlns="http://www.w3.org/2000/svg">
<path d="M26.0905 0C11.7605 0 0.144531 11.6401 0.144531 25.9999C0.144531 40.3597 11.7605 51.9999 26.0905 51.9999C40.4205 51.9999 52.0365 40.3597 52.0365 25.9999C52.0365 11.6401 40.4205 0 26.0905 0ZM50.343 25.9999C50.343 39.4242 39.4869 50.3028 26.0905 50.3028C12.6941 50.3028 1.83808 39.4242 1.83808 25.9999C1.83808 12.5757 12.6941 1.69707 26.0905 1.69707C39.4869 1.69707 50.343 12.5757 50.343 25.9999Z" fill="white"/>
<path d="M38.665 14.9707C39.0124 15.3406 39.5335 15.9715 39.8158 16.3414L45.0701 12.9908C44.8095 12.6427 44.397 12.1205 44.0713 11.7506L40.7494 13.9481L40.5323 14.1439L40.706 13.9046L42.1824 10.9674L41.1402 9.92301L38.2091 11.4025L37.9703 11.5766L38.1657 11.359L40.3586 8.03013C39.9678 7.70377 39.5986 7.39917 39.121 7.0293L35.7773 12.2946C36.1899 12.6209 36.7544 13.0996 37.1018 13.4259L40.25 11.7941L40.4454 11.6418L40.2934 11.8377L38.665 14.9707Z" fill="white"/>
<path d="M26.7405 8.31284L28.1735 5.09276L28.2603 4.80992L28.2386 5.11452L28.3906 9.42246C28.89 9.46597 29.411 9.53125 29.9321 9.61827L29.6933 3.24339C28.9768 3.15636 28.2603 3.11285 27.5438 3.06934L26.1325 6.59401L26.0891 6.8551L26.0457 6.59401L24.6344 3.06934C23.9179 3.09109 23.2014 3.15636 22.4849 3.24339L22.2461 9.61827C22.7672 9.53125 23.2883 9.46597 23.7876 9.42246L23.9396 5.11452L23.9179 4.80992L24.0048 5.09276L25.4378 8.31284H26.7405V8.31284Z" fill="white"/>
<path d="M15.1262 13.3829C15.9512 12.5126 16.4289 11.49 15.6039 10.5327C15.1479 10.0105 14.388 9.9017 13.7583 10.1628L13.6932 10.1845L13.7149 10.1193C13.8018 9.87995 13.8669 9.07493 13.1938 8.531C12.8681 8.26991 12.4556 8.16112 12.0431 8.20464C11.2615 8.29167 10.6752 8.81384 9.02511 10.6415C8.52574 11.1854 7.80924 12.0557 7.375 12.6214L11.8694 16.8858C13.3675 15.2322 13.9537 14.623 15.1262 13.3829ZM9.28566 12.3385C10.1976 11.2289 11.1529 10.2281 11.5871 9.83643C11.7174 9.70589 11.8694 9.57535 12.0648 9.53183C12.3688 9.4448 12.6727 9.66237 12.7379 9.96698C12.803 10.2716 12.6076 10.5544 12.4122 10.7938C11.9128 11.3377 10.1541 13.1871 10.1541 13.1871L9.28566 12.3385ZM11.0443 14.0138C11.0443 14.0138 12.7596 12.208 13.3024 11.6205C13.5195 11.3812 13.6715 11.2507 13.8235 11.1854C14.0189 11.0984 14.236 11.0766 14.4314 11.2071C14.6268 11.3377 14.7137 11.5553 14.6702 11.7728C14.6051 12.0339 14.4097 12.2732 14.236 12.4691C13.9972 12.7301 11.9779 14.8841 11.9779 14.8841L11.0443 14.0138Z" fill="white"/>
<path d="M41.462 25.9999H26.0898V10.5957C34.601 10.5957 41.462 17.471 41.462 25.9999Z" fill="white"/>
<path d="M26.0831 26V41.4041C17.572 41.4041 10.7109 34.5071 10.7109 26H26.0831Z" fill="white"/>
<path d="M26.0831 10.5957V25.9999H10.7109C10.7109 17.471 17.572 10.5957 26.0831 10.5957Z" fill="#0066B1"/>
<path d="M41.462 26C41.462 34.5289 34.5793 41.4041 26.0898 41.4041V26H41.462Z" fill="#0066B1"/>
</svg>
