<svg xmlns="http://www.w3.org/2000/svg" viewBox="0 0 350 350"><path d="M175 0a175 175 0 10175 175A175 175 0 00175 0zm163.62 175A163.62 163.62 0 11175 11.38 163.619 163.619 0 01338.62 175z" fill="#6f6f6f"/><path data-name="Shape" d="M175 71.3v5.686A98.129 98.129 0 01273.018 175h5.682A103.708 103.708 0 00175 71.3m0 201.721A98.129 98.129 0 0176.982 175H71.3A103.708 103.708 0 00175 278.7" fill="#6f6f6f"/><g fill="#6f6f6f"><path d="M258.79 101.153c2.375 2.532 5.8 6.615 7.72 9.1l35.407-22.32a232.296 232.296 0 00-6.692-8.249l-22.423 14.721-1.532 1.307 1.141-1.654 9.9-19.622-7-6.952-19.769 9.831-1.665 1.133 1.326-1.521 14.833-22.255a209.624 209.624 0 00-8.319-6.673l-22.468 35.125c2.847 2.175 6.6 5.37 8.995 7.544l21.156-10.9 1.357-.99-1 1.348zM178.454 56.632l9.673-21.52.617-1.909-.175 1.991 1.018 28.759c3.392.316 6.9.786 10.352 1.358l-1.574-42.593q-7.244-.797-14.453-1.113l-9.529 23.491-.339 1.746-.339-1.746-9.52-23.491q-7.216.306-14.453 1.113l-1.573 42.587a154.669 154.669 0 0110.352-1.358l1.018-28.759-.175-1.983.617 1.909 9.673 21.52zM100.215 90.576c5.592-5.85 8.758-12.608 3.166-19.06-3.043-3.5-8.152-4.267-12.387-2.542l-.421.163.134-.368a10.109 10.109 0 00-3.527-10.637 10.588 10.588 0 00-7.823-2.164c-5.253.531-9.293 4.094-20.292 16.273-3.324 3.675-8.152 9.469-11.051 13.231l30.212 28.462c10.015-11.005 14.094-15.099 21.989-23.358zM60.792 83.61a186.911 186.911 0 0115.481-16.749 7.99 7.99 0 013.156-2 3.744 3.744 0 014.492 2.879c.463 2.032-.822 3.961-2.251 5.554-3.218 3.6-15.019 15.865-15.019 15.865zm11.832 11.152s11.493-12.067 15.245-15.926a14.02 14.02 0 013.472-2.961 3.963 3.963 0 014.071.082 3.548 3.548 0 011.544 3.753c-.38 1.725-1.8 3.369-2.971 4.625a37343.891 37343.891 0 01-15.234 16.195z"/></g><path d="M175 71.3V175H71.3A103.656 103.656 0 01175 71.3z" fill="#0066b1"/><path data-name="Path" d="M278.7 175A103.656 103.656 0 01175 278.7V175z" fill="#0066b1"/></svg>
